<svg xmlns="http://www.w3.org/2000/svg" viewBox="0 0 64 80" x="0px" y="0px"><title>illustrator, ai, file format, vector</title><g data-name="Ai"><path d="M58.93,26.33H51.5V10.37A6.513,6.513,0,0,0,45,3.87H22.1a1.241,1.241,0,0,0-.27.03c-.05.01-.09.02-.13.03a.636.636,0,0,0-.18.06,1.3,1.3,0,0,0-.26.14,1.092,1.092,0,0,0-.17.13l-.05.05L4.99,18.81l-.02.02a.276.276,0,0,0-.07.09.521.521,0,0,0-.14.16.853.853,0,0,0-.13.25.052.052,0,0,0-.02.04.6.6,0,0,0-.06.19,1.119,1.119,0,0,0-.05.36V53.63a6.513,6.513,0,0,0,6.5,6.5H45a6.513,6.513,0,0,0,6.5-6.5V51.67h7.43a1.5,1.5,0,0,0,1.5-1.5V27.83A1.5,1.5,0,0,0,58.93,26.33Zm-10.46,8.5a1.5,1.5,0,0,1-2.12,0,1.627,1.627,0,0,1-.33-.49,1.562,1.562,0,0,1-.11-.57,1.358,1.358,0,0,1,.03-.29,1.4,1.4,0,0,1,.09-.29,1.188,1.188,0,0,1,.13-.25,1.454,1.454,0,0,1,.19-.23,1.548,1.548,0,0,1,2.12,0,1.454,1.454,0,0,1,.19.23,2.013,2.013,0,0,1,.14.25,2.454,2.454,0,0,1,.08.29,1.358,1.358,0,0,1,.03.29A1.5,1.5,0,0,1,48.47,34.83Zm.44,2.99v7a1.5,1.5,0,0,1-3,0v-7a1.5,1.5,0,1,1,3,0ZM43.8,44.58a1.5,1.5,0,0,1-1.24,1.72,1.942,1.942,0,0,1-.24.02,1.493,1.493,0,0,1-1.48-1.26l-.63-3.86H35.7l-.63,3.86a1.5,1.5,0,0,1-2.96-.48l.83-5.11a.3.3,0,0,1,.02-.1l.65-3.99a4.4,4.4,0,0,1,8.69,0l.63,3.86a1.389,1.389,0,0,1,.08.46v.02Zm4.7,9.05a3.5,3.5,0,0,1-3.5,3.5H11a3.5,3.5,0,0,1-3.5-3.5V21.42h9.6a6.513,6.513,0,0,0,6.5-6.5V6.87H45a3.5,3.5,0,0,1,3.5,3.5V26.33H22.07a1.5,1.5,0,0,0-1.5,1.5V50.17a1.5,1.5,0,0,0,1.5,1.5H48.5ZM39.34,35.86l.38,2.34H36.19l.38-2.34a1.4,1.4,0,0,1,2.77,0Z"/></g><text x="0" y="79" fill="#000000" font-size="5px" font-weight="bold" font-family="'Helvetica Neue', Helvetica, Arial-Unicode, Arial, Sans-serif">Created by The Icon Z</text><text x="0" y="84" fill="#000000" font-size="5px" font-weight="bold" font-family="'Helvetica Neue', Helvetica, Arial-Unicode, Arial, Sans-serif">from the Noun Project</text></svg>