<svg xmlns="http://www.w3.org/2000/svg" viewBox="0 0 24 30" fill="none" x="0px" y="0px"><path d="M6.68187 6.02331C8.09602 4.76393 9.95891 4 12 4C16.4183 4 20 7.58172 20 12C20 16.4183 16.4183 20 12 20C7.58172 20 4 16.4183 4 12C4 11.4477 3.55228 11 3 11C2.44772 11 2 11.4477 2 12C2 17.5228 6.47715 22 12 22C17.5228 22 22 17.5228 22 12C22 6.47715 17.5228 2 12 2C9.51583 2 7.24354 2.90624 5.49549 4.40445C5.44739 3.89699 5.02006 3.5 4.5 3.5C3.94772 3.5 3.5 3.94772 3.5 4.5V7.02331C3.5 7.57559 3.94772 8.02331 4.5 8.02331H7C7.55228 8.02331 8 7.57559 8 7.02331C8 6.47102 7.55228 6.02331 7 6.02331H6.68187Z" fill="black"/><path d="M11 12C11 12.3344 11.1671 12.6466 11.4453 12.8321L14.4453 14.8321C14.9048 15.1384 15.5257 15.0142 15.8321 14.5547C16.1384 14.0952 16.0142 13.4743 15.5547 13.1679L13 11.4648L13 8.00001C13 7.44772 12.5523 7.00001 12 7.00001C11.4477 7.00001 11 7.44772 11 8.00001L11 12Z" fill="black"/><text x="0" y="39" fill="#000000" font-size="5px" font-weight="bold" font-family="'Helvetica Neue', Helvetica, Arial-Unicode, Arial, Sans-serif">Created by HideMaru</text><text x="0" y="44" fill="#000000" font-size="5px" font-weight="bold" font-family="'Helvetica Neue', Helvetica, Arial-Unicode, Arial, Sans-serif">from the Noun Project</text></svg>