<svg xmlns="http://www.w3.org/2000/svg" xmlns:xlink="http://www.w3.org/1999/xlink" version="1.1" x="0px" y="0px" viewBox="0 0 32 40" style="enable-background:new 0 0 32 32;" xml:space="preserve"><path d="M27,7h-4V6c0-1.6500244-1.3499756-3-3-3h-8c-1.6500244,0-3,1.3499756-3,3v1H5c-1.6500244,0-3,1.3499756-3,3v7h7.0800171  C9.5599976,13.6099854,12.4799805,11,16,11s6.4400024,2.6099854,6.9199829,6H30v-7C30,8.3499756,28.6500244,7,27,7z M18,9h-4  c-0.5499878,0-1-0.4500122-1-1s0.4500122-1,1-1h4c0.5499878,0,1,0.4500122,1,1S18.5499878,9,18,9z"/><path d="M16,25c-3.5200195,0-6.4400024-2.6099854-6.9199829-6H2v7c0,1.6499634,1.3499756,3,3,3h22c1.6500244,0,3-1.3500366,3-3v-7  h-7.0800171C22.4400024,22.3900146,19.5200195,25,16,25z"/><path d="M16,23c2.4199829,0,4.4400024-1.7200317,4.9000244-4C20.9699707,18.6799927,21,18.3399658,21,18  c0-0.3400269-0.0300293-0.6799927-0.0999756-1C20.4400024,14.7199707,18.4199829,13,16,13s-4.4400024,1.7199707-4.9000244,4  C11.0300293,17.3200073,11,17.6599731,11,18c0,0.3399658,0.0300293,0.6799927,0.0999756,1  C11.5599976,21.2799683,13.5800171,23,16,23z"/><text x="0" y="47" fill="#000000" font-size="5px" font-weight="bold" font-family="'Helvetica Neue', Helvetica, Arial-Unicode, Arial, Sans-serif">Created by Riyan Resdian</text><text x="0" y="52" fill="#000000" font-size="5px" font-weight="bold" font-family="'Helvetica Neue', Helvetica, Arial-Unicode, Arial, Sans-serif">from the Noun Project</text></svg>