<svg xmlns="http://www.w3.org/2000/svg" viewBox="0 0 512 640" x="0px" y="0px"><title>finger print</title><path d="M15,120a15,15,0,0,0,15-15V35a5,5,0,0,1,5-5h70a15,15,0,0,0,0-30H35A35,35,0,0,0,0,35v70A15,15,0,0,0,15,120Z"/><path d="M477,0H407a15,15,0,0,0,0,30h70a5,5,0,0,1,5,5v70a15,15,0,0,0,30,0V35A35,35,0,0,0,477,0Z"/><path d="M105,482H35a5,5,0,0,1-5-5V407a15,15,0,0,0-30,0v70a35,35,0,0,0,35,35h70a15,15,0,0,0,0-30Z"/><path d="M497,392a15,15,0,0,0-15,15v70a5,5,0,0,1-5,5H407a15,15,0,0,0,0,30h70a35,35,0,0,0,35-35V407A15,15,0,0,0,497,392Z"/><path d="M466,256c0-115.79-94.21-210-210-210S46,140.21,46,256s94.21,210,210,210S466,371.79,466,256ZM296,351a15,15,0,0,1-30,0V308.14a10,10,0,0,0-20,0V351a15,15,0,0,1-30,0V308.14a40,40,0,0,1,80,0ZM221,231a15,15,0,0,1,15-15h40a15,15,0,0,1,0,30H236A15,15,0,0,1,221,231ZM341,351a15,15,0,0,1-30,0V231a55,55,0,0,0-110,0V351a15,15,0,0,1-30,0V231a85,85,0,0,1,170,0Z"/><text x="0" y="527" fill="#000000" font-size="5px" font-weight="bold" font-family="'Helvetica Neue', Helvetica, Arial-Unicode, Arial, Sans-serif">Created by Peter Lakenbrink</text><text x="0" y="532" fill="#000000" font-size="5px" font-weight="bold" font-family="'Helvetica Neue', Helvetica, Arial-Unicode, Arial, Sans-serif">from the Noun Project</text></svg>