<svg version="1.2" xmlns="http://www.w3.org/2000/svg" viewBox="0 0 200 200" width="200" height="200">
	<title>i-qr-svg</title>
	<style>
		tspan { white-space:pre } 
		.s0 { fill: #000000 } 
	</style>
	<path id="Layer" fill-rule="evenodd" class="s0" d="m4 62v-52.2c0-3.2 2.6-5.8 5.8-5.8h52.2c3.2 0 5.8 2.6 5.8 5.8 0 3.2-2.6 5.8-5.8 5.8h-46.4v46.4c0 3.2-2.6 5.8-5.8 5.8-3.2 0-5.8-2.6-5.8-5.8zm63.8 128.2c0 3.2-2.6 5.8-5.8 5.8h-52.2c-3.2 0-5.8-2.6-5.8-5.8v-52.2c0-3.2 2.6-5.8 5.8-5.8 3.2 0 5.8 2.6 5.8 5.8v46.4h46.4c3.2 0 5.8 2.6 5.8 5.8zm128.2-52.2v52.2c0 3.2-2.6 5.8-5.8 5.8h-52.2c-3.2 0-5.8-2.6-5.8-5.8 0-3.2 2.6-5.8 5.8-5.8h46.4v-46.4c0-3.2 2.6-5.8 5.8-5.8 3.2 0 5.8 2.6 5.8 5.8zm0-128.2v52.2c0 3.2-2.6 5.8-5.8 5.8-3.2 0-5.8-2.6-5.8-5.8v-46.4h-46.4c-3.2 0-5.8-2.6-5.8-5.8 0-3.2 2.6-5.8 5.8-5.8h52.2c3.2 0 5.8 2.6 5.8 5.8zm-163.7 28.5c0-3.3 2.7-6 6-6h47.4c3.3 0 6 2.7 6 6v47.4c0 3.3-2.7 6-6 6h-47.4c-3.3 0-6-2.7-6-6zm23.8 29h11.3v-11.1h-11.3zm-23.8 47c0-3.4 2.7-6 6-6h47.4c3.3 0 6 2.6 6 6v47.4c0 3.3-2.7 6-6 6h-47.4c-3.3 0-6-2.7-6-6zm23.8 29.5h11.3v-11.2h-11.3zm52.2-29.5c0-3.3 2.7-6 6-6h47.4c3.3 0 6 2.7 6 6v47.4c0 3.3-2.7 6-6 6h-47.4c-3.3 0-6-2.7-6-6zm23.8 29.5h11.8v-11.6h-11.8zm-23.8-105.6c0-3.3 2.7-6 6-6h47.4c3.3 0 6 2.7 6 6v47.4c0 3.3-2.7 6-6 6h-47.4c-3.3 0-6-2.7-6-6zm24 29.1h11.4v-11.2h-11.4z"/>
</svg>