<svg xmlns="http://www.w3.org/2000/svg" xmlns:xlink="http://www.w3.org/1999/xlink" version="1.1" x="0px" y="0px" viewBox="0 0 100 125" enable-background="new 0 0 100 100" xml:space="preserve"><g><polygon points="77.991,21.897 89.999,21.897 77.991,9.888  "/><path d="M62.888,56.525c0.005,4.93-1.887,9.887-5.653,13.647c-3.759,3.759-8.708,5.653-13.633,5.653h-0.016   c-3.87,0.003-7.751-1.168-11.063-3.489c-2.436,2.484-14.079,15.426-14.079,15.426c-2.909,2.906-5.614,2.884-7.295,1.201   c-1.683-1.681-1.705-4.381,1.2-7.293c0,0,12.945-11.644,15.428-14.076c-2.325-3.312-3.498-7.197-3.497-11.071   c-0.002-4.929,1.887-9.884,5.65-13.639c3.761-3.77,8.718-5.665,13.647-5.661c4.932-0.003,9.889,1.892,13.656,5.657   C60.999,46.639,62.892,51.595,62.888,56.525z M57.194,56.796c-0.002-3.561-1.351-7.097-4.064-9.81   c-2.726-2.719-6.264-4.068-9.822-4.07c-3.559,0.002-7.093,1.351-9.812,4.073c-2.715,2.711-4.059,6.246-4.064,9.806   c0.002,3.558,1.351,7.093,4.065,9.809h0.001c2.717,2.722,6.256,4.069,9.818,4.072c3.56-0.003,7.095-1.351,9.814-4.065   C55.845,63.895,57.192,60.358,57.194,56.796z"/><path d="M76.323,25.236c-0.44,0-0.871-0.179-1.181-0.489c-0.31-0.31-0.489-0.74-0.489-1.18l0.002-13.679L41.791,9.889l-0.001,25.41   c0.588-0.048,1.179-0.078,1.775-0.078c5.698-0.003,11.053,2.214,15.085,6.245c2.323,2.318,4.022,5.088,5.062,8.104h3.755v17.446   h-5.348c-0.938,1.65-2.089,3.194-3.47,4.573c-0.608,0.608-1.249,1.17-1.914,1.693h33.26L90,25.236H76.323z M75.574,67.016h-6.379   V41.574h6.379V67.016z M83.668,67.016h-6.369V31.611h6.369V67.016z"/><path d="M31.753,56.797c0,6.043,4.516,11.021,10.354,11.771V45.027C36.269,45.777,31.753,50.754,31.753,56.797z"/></g><text x="0" y="115" fill="#000000" font-size="5px" font-weight="bold" font-family="'Helvetica Neue', Helvetica, Arial-Unicode, Arial, Sans-serif">Created by Francisco Garcia Gallegos</text><text x="0" y="120" fill="#000000" font-size="5px" font-weight="bold" font-family="'Helvetica Neue', Helvetica, Arial-Unicode, Arial, Sans-serif">from the Noun Project</text></svg>