<svg version="1.2" xmlns="http://www.w3.org/2000/svg" viewBox="0 0 200 200" width="200" height="200">
	<title>noun-users-998914-svg</title>
	<style>
		tspan { white-space:pre } 
		.s0 { fill: #000000 } 
		.t1 { font-size: 5px;fill: #000000;font-family: "' Helvetica  Neue'" } 
	</style>
	<g id="Layer">
		<path id="Layer" class="s0" d="m69.2 61.6c-14.9 0-26.9-12-26.9-26.9 0-14.9 12-26.9 26.9-26.9 14.9 0 26.9 12 26.9 26.9 0 14.9-12 26.9-26.9 26.9z"/>
		<path id="Layer" class="s0" d="m96.1 134.7q2.4-1.9 4.9-3.5 0.2-0.2 0.4-0.3 2.5-1.6 5.2-2.9c-4.1-5.7-6.6-12.7-6.6-20.2 0-10.1 4.4-19.2 11.3-25.5-7.3-7.9-16.3-14.1-26.7-16.7l-1.5-0.4-1.3 0.7c-8 4.6-17.1 4.6-25.1 0l-1.3-0.7-1.5 0.4c-25.1 6.3-42.4 33.3-46.1 55.6-0.5 3.3 0.5 6.8 2.7 9.4 2.2 2.6 5.4 4.1 8.8 4.1h76.8z"/>
		<path id="Layer" class="s0" d="m192.1 179.9c-2.9-17.2-15.8-37.5-34.8-46-6.1 5.2-14 8.5-22.7 8.5-8.7 0-16.6-3.3-22.7-8.5-18.9 8.5-31.8 28.8-34.8 46-0.5 3 0.3 6 2.3 8.4 2.1 2.5 5.2 3.9 8.6 3.9h93.2c3.4 0 6.5-1.4 8.6-3.9 2-2.4 2.9-5.4 2.3-8.4z"/>
		<path id="Layer" class="s0" d="m134.6 134.7c-14.9 0-26.9-12.1-26.9-26.9 0-14.9 12-27 26.9-27 14.9 0 26.9 12.1 26.9 27 0 14.8-12 26.9-26.9 26.9z"/>
	</g>
	<text id="from the Noun Project" style="transform: matrix(3.846,0,0,3.846,0,276.923)" >
		<tspan x="0" y="0" class="t1">from the Noun Project
</tspan>
	</text>
</svg>