<svg xmlns="http://www.w3.org/2000/svg" xmlns:xlink="http://www.w3.org/1999/xlink" version="1.1" x="0px" y="0px" viewBox="0 0 100 125" enable-background="new 0 0 100 100" xml:space="preserve"><g><path d="M88.471,76.345H19.577v1.287c0,0.888,0.722,1.61,1.61,1.61H93.3c0.888,0,1.609-0.723,1.609-1.61V36.854   c0-0.888-0.722-1.61-1.609-1.61h-1.288v37.559C92.012,74.757,90.423,76.345,88.471,76.345z"/><path d="M87.184,67.975c0,1.952-1.588,3.541-3.542,3.541H14.748v1.287c0,0.888,0.722,1.61,1.609,1.61h72.113   c0.888,0,1.61-0.723,1.61-1.61V32.025c0-0.888-0.723-1.61-1.61-1.61h-1.287V67.975z"/><path d="M82.354,63.146c0,1.952-1.589,3.541-3.541,3.541H9.919v1.287c0,0.888,0.722,1.609,1.609,1.609h72.113   c0.888,0,1.61-0.722,1.61-1.609V27.196c0-0.888-0.723-1.609-1.61-1.609h-1.287V63.146z"/><path d="M78.813,64.756c0.887,0,1.609-0.723,1.609-1.609V22.368c0-0.888-0.723-1.61-1.609-1.61H6.7c-0.888,0-1.61,0.722-1.61,1.61   v40.779c0,0.887,0.722,1.609,1.61,1.609H78.813z"/></g><text x="0" y="115" fill="#000000" font-size="5px" font-weight="bold" font-family="'Helvetica Neue', Helvetica, Arial-Unicode, Arial, Sans-serif">Created by Blaise Sewell</text><text x="0" y="120" fill="#000000" font-size="5px" font-weight="bold" font-family="'Helvetica Neue', Helvetica, Arial-Unicode, Arial, Sans-serif">from the Noun Project</text></svg>