<svg xmlns="http://www.w3.org/2000/svg" viewBox="0 0 64 80" x="0px" y="0px"><title>start, flag_1</title><g data-name="Start"><path d="M55.32,11.1a2.11,2.11,0,0,1,0,.25l-3.92,24.2L47.72,58.17a1.5,1.5,0,0,1-1.48,1.25H46a1.51,1.51,0,0,1-1.24-1.73l3.55-21.92C46.4,34,39.9,29,31.3,34.23A17.51,17.51,0,0,1,22.07,37c-7.66,0-12.92-5.52-13-5.6a1.5,1.5,0,0,1-.38-1.25L12.51,5.85a1.48,1.48,0,0,1,1-1.2,1.5,1.5,0,0,1,1.54.41c.33.35,8.23,8.56,18.45,2.32C45.91-.18,54.87,10,55,10.08a1.5,1.5,0,0,1,.34.76A1.14,1.14,0,0,1,55.32,11.1Z"/></g><text x="0" y="79" fill="#000000" font-size="5px" font-weight="bold" font-family="'Helvetica Neue', Helvetica, Arial-Unicode, Arial, Sans-serif">Created by The Icon Z</text><text x="0" y="84" fill="#000000" font-size="5px" font-weight="bold" font-family="'Helvetica Neue', Helvetica, Arial-Unicode, Arial, Sans-serif">from the Noun Project</text></svg>