<svg version="1.2" xmlns="http://www.w3.org/2000/svg" viewBox="0 0 50 50" width="50" height="50">
	<title>next-svg</title>
	<style>
		.s0 { fill: #000000 } 
	</style>
	<g id="Layer">
		<g id="Layer">
			<path id="Layer" fill-rule="evenodd" class="s0" d="m25 50c-13.8 0-25-11.2-25-25 0-13.8 11.2-25 25-25 13.8 0 25 11.2 25 25 0 13.8-11.2 25-25 25zm14.4-25.8q-0.1-0.4-0.4-0.7l-8.4-8.3c-0.8-0.8-2.1-0.8-2.9 0-0.8 0.8-0.8 2.1 0 2.9l4.8 4.8h-20c-1.2 0-2.1 0.9-2.1 2.1 0 1.1 0.9 2.1 2.1 2.1h20l-4.8 4.8c-0.8 0.8-0.8 2.1 0 2.9 0.4 0.4 0.9 0.6 1.5 0.6 0.5 0 1-0.2 1.4-0.6l8.4-8.3q0.3-0.3 0.4-0.7c0.2-0.5 0.2-1.1 0-1.6z"/>
		</g>
	</g>
</svg>